<svg width="282" height="282" viewBox="0 0 282 282" fill="none" xmlns="http://www.w3.org/2000/svg">
<g id="Icon/Outline/credit-card" opacity="0.2">
<path id="Mask" fill-rule="evenodd" clip-rule="evenodd" d="M129.25 176.25H82.25C75.7875 176.25 70.5 170.962 70.5 164.5C70.5 158.037 75.7875 152.75 82.25 152.75H129.25C135.712 152.75 141 158.037 141 164.5C141 170.962 135.712 176.25 129.25 176.25ZM199.75 176.25H176.25C169.787 176.25 164.5 170.962 164.5 164.5C164.5 158.037 169.787 152.75 176.25 152.75H199.75C206.212 152.75 211.5 158.037 211.5 164.5C211.5 170.962 206.212 176.25 199.75 176.25ZM235 188C235 194.474 229.736 199.75 223.25 199.75H58.75C52.264 199.75 47 194.474 47 188V129.25H235V188ZM47 93.9999C47 87.5257 52.264 82.2499 58.75 82.2499H223.25C229.736 82.2499 235 87.5257 235 93.9999V105.75H47V93.9999ZM223.25 58.75H58.75C39.3155 58.75 23.5 74.5655 23.5 94V188C23.5 207.435 39.3155 223.25 58.75 223.25H223.25C242.685 223.25 258.5 207.435 258.5 188V94C258.5 74.5655 242.685 58.75 223.25 58.75Z" fill="#231F20"/>
<mask id="mask0" mask-type="alpha" maskUnits="userSpaceOnUse" x="23" y="58" width="236" height="166">
<path id="Mask_2" fill-rule="evenodd" clip-rule="evenodd" d="M129.25 176.25H82.25C75.7875 176.25 70.5 170.962 70.5 164.5C70.5 158.037 75.7875 152.75 82.25 152.75H129.25C135.712 152.75 141 158.037 141 164.5C141 170.962 135.712 176.25 129.25 176.25ZM199.75 176.25H176.25C169.787 176.25 164.5 170.962 164.5 164.5C164.5 158.037 169.787 152.75 176.25 152.75H199.75C206.212 152.75 211.5 158.037 211.5 164.5C211.5 170.962 206.212 176.25 199.75 176.25ZM235 188C235 194.474 229.736 199.75 223.25 199.75H58.75C52.264 199.75 47 194.474 47 188V129.25H235V188ZM47 93.9999C47 87.5257 52.264 82.2499 58.75 82.2499H223.25C229.736 82.2499 235 87.5257 235 93.9999V105.75H47V93.9999ZM223.25 58.75H58.75C39.3155 58.75 23.5 74.5655 23.5 94V188C23.5 207.435 39.3155 223.25 58.75 223.25H223.25C242.685 223.25 258.5 207.435 258.5 188V94C258.5 74.5655 242.685 58.75 223.25 58.75Z" fill="white"/>
</mask>
<g mask="url(#mask0)">
<g id="&#240;&#159;&#142;&#168; Color">
<rect id="Base" width="282" height="282" fill="white"/>
</g>
</g>
</g>
</svg>
